Oxygen.ufo
<glyph name="quotedbl" format="1">
  <advance width="710"/>
  <unicode hex="0022"/>
  <outline>
    <contour>
      <point x="160" y="1016" type="line" smooth="no"/>
      <point x="139" y="1510" type="line" smooth="no"/>
      <point x="290" y="1510" type="line" smooth="no"/>
      <point x="261" y="1016" type="line" smooth="no"/>
    </contour>
    <contour>
      <point x="446" y="1016" type="line" smooth="no"/>
      <point x="425" y="1510" type="line" smooth="no"/>
      <point x="576" y="1510" type="line" smooth="no"/>
      <point x="547" y="1016" type="line" smooth="no"/>
    </contour>
  </outline>
</glyph>
<glyph name="dollar" format="1">
  <advance width="1227"/>
  <unicode hex="0024"/>
  <outline>
    <contour>
      <point x="580" y="886" type="line" smooth="no"/>
      <point x="580" y="1370" type="line" smooth="no"/>
      <point x="380" y="1358"/>
      <point x="276" y="1279"/>
      <point x="276" y="1121" type="curve" smooth="yes"/>
      <point x="276" y="1004"/>
      <point x="354" y="941"/>
      <point x="498" y="906" type="curve" smooth="yes"/>
    </contour>
    <contour>
      <point x="675" y="131" type="line" smooth="no"/>
      <point x="678" y="131" type="line" smooth="no"/>
      <point x="866" y="142"/>
      <point x="966" y="236"/>
      <point x="966" y="426" type="curve" smooth="yes"/>
      <point x="966" y="546"/>
      <point x="917" y="627"/>
      <point x="727" y="675" type="curve" smooth="yes"/>
      <point x="675" y="688" type="line" smooth="no"/>
    </contour>
    <contour>
      <point x="675" y="-195" type="line" smooth="no"/>
      <point x="580" y="-195" type="line" smooth="no"/>
      <point x="580" y="-22" type="line" smooth="no"/>
      <point x="346" y="-14"/>
      <point x="179" y="48"/>
      <point x="94" y="100" type="curve" smooth="no"/>
      <point x="146" y="244" type="line" smooth="no"/>
      <point x="266" y="185"/>
      <point x="414" y="141"/>
      <point x="580" y="132" type="curve" smooth="no"/>
      <point x="580" y="712" type="line" smooth="no"/>
      <point x="433" y="749" type="line" smooth="yes"/>
      <point x="227" y="801"/>
      <point x="96" y="911"/>
      <point x="96" y="1109" type="curve" smooth="yes"/>
      <point x="96" y="1381"/>
      <point x="287" y="1508"/>
      <point x="580" y="1523" type="curve" smooth="no"/>
      <point x="580" y="1693" type="line" smooth="no"/>
      <point x="675" y="1693" type="line" smooth="no"/>
      <point x="675" y="1525" type="line" smooth="no"/>
      <point x="844" y="1520"/>
      <point x="993" y="1478"/>
      <point x="1089" y="1418" type="curve" smooth="no"/>
      <point x="1039" y="1277" type="line" smooth="no"/>
      <point x="966" y="1318"/>
      <point x="824" y="1364"/>
      <point x="675" y="1371" type="curve" smooth="no"/>
      <point x="675" y="863" type="line" smooth="no"/>
      <point x="779" y="838" type="line" smooth="yes"/>
      <point x="1003" y="784"/>
      <point x="1145" y="676"/>
      <point x="1145" y="432" type="curve" smooth="yes"/>
      <point x="1145" y="136"/>
      <point x="956" y="-8"/>
      <point x="675" y="-22" type="curve" smooth="no"/>
    </contour>
  </outline>
</glyph>
<glyph name="quotesingle" format="1">
  <advance width="393"/>
  <unicode hex="0027"/>
  <outline>
    <contour>
      <point x="248" y="1016" type="line" smooth="no"/>
      <point x="143" y="1016" type="line" smooth="no"/>
      <point x="122" y="1510" type="line" smooth="no"/>
      <point x="277" y="1510" type="line" smooth="no"/>
    </contour>
  </outline>
</glyph>
<glyph name="plus" format="1">
  <advance width="1081"/>
  <unicode hex="002b"/>
  <outline>
    <contour>
      <point x="101" y="646" type="line" smooth="no"/>
      <point x="487" y="646" type="line" smooth="no"/>
      <point x="487" y="1065" type="line" smooth="no"/>
      <point x="621" y="1065" type="line" smooth="no"/>
      <point x="621" y="646" type="line" smooth="no"/>
      <point x="989" y="646" type="line" smooth="no"/>
      <point x="989" y="512" type="line" smooth="no"/>
      <point x="619" y="512" type="line" smooth="no"/>
      <point x="619" y="80" type="line" smooth="no"/>
      <point x="484" y="80" type="line" smooth="no"/>
      <point x="484" y="512" type="line" smooth="no"/>
      <point x="101" y="512" type="line" smooth="no"/>
    </contour>
  </outline>
</glyph>
<glyph name="comma" format="1">
  <advance width="508"/>
  <unicode hex="002c"/>
  <outline>
    <contour>
      <point x="367" y="230" type="line" smooth="no"/>
      <point x="241" y="-292" type="line" smooth="no"/>
      <point x="135" y="-292" type="line" smooth="no"/>
      <point x="155" y="230" type="line" smooth="no"/>
    </contour>
  </outline>
</glyph>
<glyph name="period" format="1">
  <advance width="494"/>
  <unicode hex="002e"/>
  <outline>
    <contour>
      <point x="261" y="-12" type="curve" smooth="yes"/>
      <point x="173" y="-12"/>
      <point x="128" y="54"/>
      <point x="128" y="120" type="curve" smooth="yes"/>
      <point x="128" y="186"/>
      <point x="172" y="252"/>
      <point x="261" y="252" type="curve" smooth="yes"/>
      <point x="350" y="252"/>
      <point x="394" y="186"/>
      <point x="394" y="120" type="curve" smooth="yes"/>
      <point x="394" y="54"/>
      <point x="350" y="-12"/>
    </contour>
  </outline>
</glyph>
<glyph name="one" format="1">
  <advance width="664"/>
  <unicode hex="0031"/>
  <outline>
    <contour>
      <point x="324" y="1496" type="curve" smooth="no"/>
      <point x="483" y="1496" type="line" smooth="no"/>
      <point x="483" y="0" type="line" smooth="no"/>
      <point x="306" y="0" type="line" smooth="no"/>
      <point x="306" y="1311" type="line" smooth="no"/>
      <point x="227" y="1259"/>
      <point x="161" y="1221"/>
      <point x="89" y="1198" type="curve" smooth="no"/>
      <point x="51" y="1343" type="line" smooth="no"/>
      <point x="139" y="1382"/>
      <point x="245" y="1440"/>
    </contour>
  </outline>
</glyph>
<glyph name="five" format="1">
  <advance width="1177"/>
  <unicode hex="0035"/>
  <outline>
    <contour>
      <point x="1004" y="1496" type="line" smooth="no"/>
      <point x="987" y="1332" type="line" smooth="no"/>
      <point x="379" y="1332" type="line" smooth="no"/>
      <point x="374" y="1187"/>
      <point x="368" y="1006"/>
      <point x="364" y="861" type="curve" smooth="no"/>
      <point x="444" y="912"/>
      <point x="525" y="933"/>
      <point x="609" y="933" type="curve" smooth="yes"/>
      <point x="912" y="933"/>
      <point x="1064" y="731"/>
      <point x="1064" y="477" type="curve" smooth="yes"/>
      <point x="1064" y="178"/>
      <point x="860" y="-23"/>
      <point x="523" y="-23" type="curve" smooth="yes"/>
      <point x="348" y="-23"/>
      <point x="210" y="33"/>
      <point x="121" y="114" type="curve" smooth="no"/>
      <point x="186" y="255" type="line" smooth="no"/>
      <point x="250" y="205"/>
      <point x="363" y="139"/>
      <point x="529" y="139" type="curve" smooth="yes"/>
      <point x="751" y="139"/>
      <point x="883" y="279"/>
      <point x="883" y="475" type="curve" smooth="yes"/>
      <point x="883" y="648"/>
      <point x="778" y="776"/>
      <point x="575" y="776" type="curve" smooth="yes"/>
      <point x="480" y="776"/>
      <point x="400" y="746"/>
      <point x="337" y="677" type="curve" smooth="no"/>
      <point x="198" y="696" type="line" smooth="no"/>
      <point x="237" y="1496" type="line" smooth="no"/>
    </contour>
  </outline>
</glyph>
<glyph name="semicolon" format="1">
  <advance width="518"/>
  <unicode hex="003b"/>
  <outline>
    <contour>
      <point x="376" y="197" type="line" smooth="no"/>
      <point x="251" y="-310" type="line" smooth="no"/>
      <point x="138" y="-310" type="line" smooth="no"/>
      <point x="194" y="197" type="line" smooth="no"/>
    </contour>
    <contour>
      <point x="174" y="893" type="line" smooth="no"/>
      <point x="174" y="1124" type="line" smooth="no"/>
      <point x="380" y="1124" type="line" smooth="no"/>
      <point x="380" y="893" type="line" smooth="no"/>
    </contour>
  </outline>
</glyph>
<glyph name="G" format="1">
  <advance width="1432"/>
  <unicode hex="0047"/>
  <outline>
    <contour>
      <point x="811" y="-23" type="curve" smooth="yes"/>
      <point x="338" y="-23"/>
      <point x="101" y="335"/>
      <point x="101" y="745" type="curve" smooth="yes"/>
      <point x="101" y="1164"/>
      <point x="334" y="1525"/>
      <point x="816" y="1525" type="curve" smooth="yes"/>
      <point x="1008" y="1525"/>
      <point x="1161" y="1472"/>
      <point x="1275" y="1380" type="curve" smooth="no"/>
      <point x="1210" y="1243" type="line" smooth="no"/>
      <point x="1129" y="1309"/>
      <point x="976" y="1373"/>
      <point x="830" y="1373" type="curve" smooth="yes"/>
      <point x="451" y="1373"/>
      <point x="290" y="1074"/>
      <point x="290" y="745" type="curve" smooth="yes"/>
      <point x="290" y="413"/>
      <point x="451" y="129"/>
      <point x="830" y="129" type="curve" smooth="yes"/>
      <point x="955" y="129"/>
      <point x="1101" y="179"/>
      <point x="1167" y="220" type="curve" smooth="no"/>
      <point x="1167" y="615" type="line" smooth="no"/>
      <point x="797" y="615" type="line" smooth="no"/>
      <point x="809" y="764" type="line" smooth="no"/>
      <point x="1321" y="764" type="line" smooth="no"/>
      <point x="1321" y="123" type="line" smooth="no"/>
      <point x="1142" y="15"/>
      <point x="1002" y="-23"/>
    </contour>
  </outline>
</glyph>
<glyph name="H" format="1">
  <advance width="1465"/>
  <unicode hex="0048"/>
  <outline>
    <contour>
      <point x="1141" y="696" type="line" smooth="no"/>
      <point x="324" y="696" type="line" smooth="no"/>
      <point x="324" y="0" type="line" smooth="no"/>
      <point x="147" y="0" type="line" smooth="no"/>
      <point x="147" y="1496" type="line" smooth="no"/>
      <point x="324" y="1496" type="line" smooth="no"/>
      <point x="324" y="848" type="line" smooth="no"/>
      <point x="1141" y="848" type="line" smooth="no"/>
      <point x="1141" y="1496" type="line" smooth="no"/>
      <point x="1318" y="1496" type="line" smooth="no"/>
      <point x="1318" y="0" type="line" smooth="no"/>
      <point x="1141" y="0" type="line" smooth="no"/>
    </contour>
  </outline>
</glyph>
<glyph name="L" format="1">
  <advance width="980"/>
  <unicode hex="004c"/>
  <outline>
    <contour>
      <point x="148" y="1496" type="line" smooth="no"/>
      <point x="325" y="1496" type="line" smooth="no"/>
      <point x="325" y="155" type="line" smooth="no"/>
      <point x="982" y="155" type="line" smooth="no"/>
      <point x="970" y="0" type="line" smooth="no"/>
      <point x="148" y="0" type="line" smooth="no"/>
    </contour>
  </outline>
</glyph>
<glyph name="M" format="1">
  <advance width="1785"/>
  <unicode hex="004d"/>
  <outline>
    <contour>
      <point x="316" y="1181" type="line" smooth="no"/>
      <point x="316" y="0" type="line" smooth="no"/>
      <point x="149" y="0" type="line" smooth="no"/>
      <point x="149" y="1496" type="line" smooth="no"/>
      <point x="341" y="1496" type="line" smooth="no"/>
      <point x="900" y="347" type="line" smooth="no"/>
      <point x="1453" y="1496" type="line" smooth="no"/>
      <point x="1636" y="1496" type="line" smooth="no"/>
      <point x="1636" y="0" type="line" smooth="no"/>
      <point x="1470" y="0" type="line" smooth="no"/>
      <point x="1470" y="1175" type="line" smooth="no"/>
      <point x="998" y="183" type="line" smooth="no"/>
      <point x="797" y="183" type="line" smooth="no"/>
    </contour>
  </outline>
</glyph>
<glyph name="O" format="1">
  <advance width="1657"/>
  <unicode hex="004f"/>
  <outline>
    <contour>
      <point x="829" y="1373" type="curve" smooth="yes"/>
      <point x="469" y="1373"/>
      <point x="288" y="1123"/>
      <point x="288" y="746" type="curve" smooth="yes"/>
      <point x="288" y="402"/>
      <point x="453" y="129"/>
      <point x="829" y="129" type="curve" smooth="yes"/>
      <point x="1205" y="129"/>
      <point x="1369" y="402"/>
      <point x="1369" y="746" type="curve" smooth="yes"/>
      <point x="1369" y="1119"/>
      <point x="1190" y="1373"/>
    </contour>
    <contour>
      <point x="829" y="-23" type="curve" smooth="yes"/>
      <point x="349" y="-23"/>
      <point x="99" y="308"/>
      <point x="99" y="746" type="curve" smooth="yes"/>
      <point x="99" y="1211"/>
      <point x="366" y="1525"/>
      <point x="829" y="1525" type="curve" smooth="yes"/>
      <point x="1292" y="1525"/>
      <point x="1558" y="1211"/>
      <point x="1558" y="746" type="curve" smooth="yes"/>
      <point x="1558" y="308"/>
      <point x="1308" y="-23"/>
    </contour>
  </outline>
</glyph>
<glyph name="a" format="1">
  <advance width="1046"/>
  <unicode hex="0061"/>
  <outline>
    <contour>
      <point x="437" y="107" type="curve" smooth="yes"/>
      <point x="541" y="107"/>
      <point x="686" y="170"/>
      <point x="757" y="269" type="curve" smooth="no"/>
      <point x="757" y="539" type="line" smooth="yes"/>
      <point x="757" y="538"/>
      <point x="660" y="525"/>
      <point x="657" y="525" type="curve" smooth="yes"/>
      <point x="345" y="484"/>
      <point x="254" y="434"/>
      <point x="254" y="280" type="curve" smooth="yes"/>
      <point x="254" y="157"/>
      <point x="332" y="107"/>
    </contour>
    <contour>
      <point x="762" y="120" type="curve" smooth="no"/>
      <point x="666" y="12"/>
      <point x="534" y="-25"/>
      <point x="419" y="-25" type="curve" smooth="yes"/>
      <point x="238" y="-25"/>
      <point x="86" y="70"/>
      <point x="86" y="275" type="curve" smooth="yes"/>
      <point x="86" y="563"/>
      <point x="364" y="602"/>
      <point x="647" y="643" type="curve" smooth="yes"/>
      <point x="648" y="643"/>
      <point x="757" y="656"/>
      <point x="757" y="656" type="curve" smooth="no"/>
      <point x="757" y="781" type="line" smooth="yes"/>
      <point x="757" y="914"/>
      <point x="692" y="983"/>
      <point x="541" y="983" type="curve" smooth="yes"/>
      <point x="420" y="983"/>
      <point x="288" y="953"/>
      <point x="198" y="909" type="curve" smooth="yes"/>
      <point x="197" y="909"/>
      <point x="152" y="1041"/>
      <point x="152" y="1041" type="curve" smooth="no"/>
      <point x="235" y="1087"/>
      <point x="382" y="1124"/>
      <point x="537" y="1124" type="curve" smooth="yes"/>
      <point x="754" y="1124"/>
      <point x="924" y="1051"/>
      <point x="924" y="806" type="curve" smooth="yes"/>
      <point x="924" y="0" type="line" smooth="no"/>
      <point x="787" y="0" type="line" smooth="no"/>
      <point x="786" y="1"/>
      <point x="762" y="120"/>
    </contour>
  </outline>
</glyph>
<glyph name="h" format="1">
  <advance width="1112"/>
  <unicode hex="0068"/>
  <outline>
    <contour>
      <point x="282" y="0" type="line" smooth="no"/>
      <point x="282" y="768" type="line" smooth="no"/>
      <point x="309" y="872"/>
      <point x="448" y="980"/>
      <point x="619" y="980" type="curve" smooth="yes"/>
      <point x="806" y="980"/>
      <point x="839" y="865"/>
      <point x="839" y="617" type="curve" smooth="yes"/>
      <point x="839" y="0" type="line" smooth="no"/>
      <point x="1007" y="0" type="line" smooth="no"/>
      <point x="1007" y="664" type="line" smooth="yes"/>
      <point x="1007" y="961"/>
      <point x="903" y="1124"/>
      <point x="674" y="1124" type="curve" smooth="yes"/>
      <point x="507" y="1124"/>
      <point x="367" y="1063"/>
      <point x="282" y="961" type="curve" smooth="no"/>
      <point x="282" y="1510" type="line" smooth="no"/>
      <point x="114" y="1490" type="line" smooth="no"/>
      <point x="114" y="0" type="line" smooth="no"/>
    </contour>
  </outline>
</glyph>
<glyph name="l" format="1">
  <advance width="550"/>
  <unicode hex="006c"/>
  <outline>
    <contour>
      <point x="311" y="1510" type="line" smooth="no"/>
      <point x="311" y="431" type="line" smooth="yes"/>
      <point x="311" y="192"/>
      <point x="318" y="117"/>
      <point x="432" y="117" type="curve" smooth="yes"/>
      <point x="457" y="117"/>
      <point x="470" y="119"/>
      <point x="522" y="123" type="curve" smooth="no"/>
      <point x="533" y="-8" type="line" smooth="no"/>
      <point x="476" y="-18"/>
      <point x="436" y="-21"/>
      <point x="419" y="-21" type="curve" smooth="yes"/>
      <point x="149" y="-21"/>
      <point x="143" y="104"/>
      <point x="143" y="468" type="curve" smooth="yes"/>
      <point x="143" y="1490" type="line" smooth="no"/>
    </contour>
  </outline>
</glyph>
<glyph name="r" format="1">
  <advance width="654"/>
  <unicode hex="0072"/>
  <outline>
    <contour>
      <point x="123" y="0" type="line" smooth="no"/>
      <point x="123" y="845" type="line" smooth="yes"/>
      <point x="123" y="932"/>
      <point x="120" y="1015"/>
      <point x="120" y="1098" type="curve" smooth="no"/>
      <point x="262" y="1098" type="line" smooth="no"/>
      <point x="275" y="908" type="line" smooth="no"/>
      <point x="352" y="1049"/>
      <point x="466" y="1098"/>
      <point x="595" y="1098" type="curve" smooth="yes"/>
      <point x="627" y="1098" type="line" smooth="no"/>
      <point x="639" y="945" type="line" smooth="no"/>
      <point x="599" y="945" type="line" smooth="yes"/>
      <point x="394" y="945"/>
      <point x="291" y="808"/>
      <point x="291" y="644" type="curve" smooth="yes"/>
      <point x="291" y="0" type="line" smooth="no"/>
    </contour>
  </outline>
</glyph>
<glyph name="braceright" format="1">
  <advance width="700"/>
  <unicode hex="007d"/>
  <outline>
    <contour>
      <point x="411" y="689" type="curve" smooth="no"/>
      <point x="291" y="748"/>
      <point x="266" y="892"/>
      <point x="266" y="988" type="curve" smooth="yes"/>
      <point x="266" y="1223" type="line" smooth="yes"/>
      <point x="266" y="1424"/>
      <point x="261" y="1479"/>
      <point x="118" y="1479" type="curve" smooth="no"/>
      <point x="118" y="1616" type="line" smooth="no"/>
      <point x="334" y="1616"/>
      <point x="427" y="1534"/>
      <point x="427" y="1326" type="curve" smooth="yes"/>
      <point x="427" y="1043" type="line" smooth="yes"/>
      <point x="427" y="913"/>
      <point x="434" y="764"/>
      <point x="551" y="764" type="curve" smooth="yes"/>
      <point x="610" y="764" type="line" smooth="no"/>
      <point x="610" y="614" type="line" smooth="no"/>
      <point x="551" y="614" type="line" smooth="yes"/>
      <point x="434" y="614"/>
      <point x="427" y="465"/>
      <point x="427" y="335" type="curve" smooth="yes"/>
      <point x="427" y="53" type="line" smooth="yes"/>
      <point x="427" y="-155"/>
      <point x="334" y="-238"/>
      <point x="118" y="-238" type="curve" smooth="no"/>
      <point x="118" y="-101" type="line" smooth="no"/>
      <point x="261" y="-101"/>
      <point x="266" y="-45"/>
      <point x="266" y="156" type="curve" smooth="yes"/>
      <point x="266" y="390" type="line" smooth="yes"/>
      <point x="266" y="486"/>
      <point x="291" y="630"/>
    </contour>
  </outline>
</glyph>
<glyph name="asciitilde" format="1">
  <advance width="1340"/>
  <unicode hex="007e"/>
  <outline>
    <contour>
      <point x="435" y="760" type="curve" smooth="yes"/>
      <point x="591" y="760"/>
      <point x="819" y="587"/>
      <point x="918" y="587" type="curve" smooth="yes"/>
      <point x="1010" y="587"/>
      <point x="1075" y="681"/>
      <point x="1097" y="778" type="curve" smooth="no"/>
      <point x="1209" y="737" type="line" smooth="no"/>
      <point x="1177" y="565"/>
      <point x="1080" y="442"/>
      <point x="915" y="442" type="curve" smooth="yes"/>
      <point x="790" y="442"/>
      <point x="567" y="614"/>
      <point x="436" y="614" type="curve" smooth="yes"/>
      <point x="328" y="614"/>
      <point x="261" y="516"/>
      <point x="240" y="415" type="curve" smooth="no"/>
      <point x="137" y="474" type="line" smooth="no"/>
      <point x="164" y="622"/>
      <point x="261" y="760"/>
    </contour>
  </outline>
</glyph>
<glyph name="ordmasculine" format="1">
  <advance width="1084"/>
  <unicode hex="00ba"/>
  <outline>
    <contour>
      <point x="549" y="992" type="curve" smooth="yes"/>
      <point x="840" y="992"/>
      <point x="987" y="763"/>
      <point x="987" y="484" type="curve" smooth="yes"/>
      <point x="987" y="216"/>
      <point x="832" y="-22"/>
      <point x="546" y="-22" type="curve" smooth="yes"/>
      <point x="258" y="-22"/>
      <point x="97" y="205"/>
      <point x="97" y="483" type="curve" smooth="yes"/>
      <point x="97" y="760"/>
      <point x="261" y="992"/>
    </contour>
    <contour>
      <point x="549" y="100" type="curve" smooth="yes"/>
      <point x="754" y="100"/>
      <point x="836" y="285"/>
      <point x="836" y="483" type="curve" smooth="yes"/>
      <point x="836" y="688"/>
      <point x="760" y="870"/>
      <point x="546" y="870" type="curve" smooth="yes"/>
      <point x="341" y="870"/>
      <point x="248" y="678"/>
      <point x="248" y="480" type="curve" smooth="yes"/>
      <point x="248" y="285"/>
      <point x="340" y="100"/>
    </contour>
  </outline>
</glyph>
<glyph name="AE" format="1">
  <advance width="1866"/>
  <unicode hex="00c6"/>
  <outline>
    <contour>
      <point x="954" y="589" type="line" smooth="no"/>
      <point x="900" y="1361" type="line" smooth="no"/>
      <point x="511" y="589" type="line" smooth="no"/>
    </contour>
    <contour>
      <point x="208" y="0" type="line" smooth="no"/>
      <point x="0" y="0" type="line" smooth="no"/>
      <point x="800" y="1496" type="line" smooth="no"/>
      <point x="1700" y="1496" type="line" smooth="no"/>
      <point x="1687" y="1337" type="line" smooth="no"/>
      <point x="1072" y="1337" type="line" smooth="no"/>
      <point x="1104" y="882" type="line" smooth="no"/>
      <point x="1715" y="882" type="line" smooth="no"/>
      <point x="1715" y="724" type="line" smooth="no"/>
      <point x="1124" y="724" type="line" smooth="no"/>
      <point x="1166" y="158" type="line" smooth="no"/>
      <point x="1826" y="158" type="line" smooth="no"/>
      <point x="1812" y="0" type="line" smooth="no"/>
      <point x="1007" y="0" type="line" smooth="no"/>
      <point x="976" y="427" type="line" smooth="no"/>
      <point x="427" y="427" type="line" smooth="no"/>
    </contour>
  </outline>
</glyph>
<glyph name="dcroat" format="1">
  <advance width="1174"/>
  <unicode hex="0111"/>
  <outline>
    <contour>
      <point x="557" y="124" type="curve" smooth="yes"/>
      <point x="782" y="124"/>
      <point x="887" y="315"/>
      <point x="887" y="551" type="curve" smooth="yes"/>
      <point x="887" y="786"/>
      <point x="789" y="977"/>
      <point x="555" y="977" type="curve" smooth="yes"/>
      <point x="331" y="977"/>
      <point x="250" y="756"/>
      <point x="250" y="557" type="curve" smooth="yes"/>
      <point x="250" y="339"/>
      <point x="330" y="124"/>
    </contour>
    <contour>
      <point x="884" y="172" type="line" smooth="no"/>
      <point x="821" y="60"/>
      <point x="698" y="-24"/>
      <point x="546" y="-24" type="curve" smooth="yes"/>
      <point x="250" y="-24"/>
      <point x="77" y="219"/>
      <point x="77" y="562" type="curve" smooth="yes"/>
      <point x="77" y="873"/>
      <point x="262" y="1125"/>
      <point x="540" y="1125" type="curve" smooth="yes"/>
      <point x="685" y="1125"/>
      <point x="829" y="1053"/>
      <point x="886" y="937" type="curve" smooth="no"/>
      <point x="886" y="1243" type="line" smooth="no"/>
      <point x="636" y="1243" type="line" smooth="no"/>
      <point x="636" y="1351" type="line" smooth="no"/>
      <point x="886" y="1351" type="line" smooth="no"/>
      <point x="886" y="1490" type="line" smooth="no"/>
      <point x="1054" y="1510" type="line" smooth="no"/>
      <point x="1054" y="1351" type="line" smooth="no"/>
      <point x="1174" y="1351" type="line" smooth="no"/>
      <point x="1174" y="1243" type="line" smooth="no"/>
      <point x="1054" y="1243" type="line" smooth="no"/>
      <point x="1054" y="0" type="line" smooth="no"/>
      <point x="905" y="0" type="line" smooth="no"/>
    </contour>
  </outline>
</glyph>
<glyph name="hbar" format="1">
  <advance width="1115"/>
  <unicode hex="0127"/>
  <outline>
    <contour>
      <point x="282" y="748" type="curve" smooth="no"/>
      <point x="282" y="0" type="line" smooth="no"/>
      <point x="114" y="0" type="line" smooth="no"/>
      <point x="114" y="1243" type="line" smooth="no"/>
      <point x="21" y="1243" type="line" smooth="no"/>
      <point x="21" y="1351" type="line" smooth="no"/>
      <point x="114" y="1351" type="line" smooth="no"/>
      <point x="114" y="1490" type="line" smooth="no"/>
      <point x="282" y="1510" type="line" smooth="no"/>
      <point x="282" y="1351" type="line" smooth="no"/>
      <point x="558" y="1351" type="line" smooth="no"/>
      <point x="558" y="1243" type="line" smooth="no"/>
      <point x="282" y="1243" type="line" smooth="no"/>
      <point x="282" y="949" type="line" smooth="no"/>
      <point x="375" y="1061"/>
      <point x="507" y="1124"/>
      <point x="674" y="1124" type="curve" smooth="yes"/>
      <point x="903" y="1124"/>
      <point x="1007" y="952"/>
      <point x="1007" y="664" type="curve" smooth="yes"/>
      <point x="1007" y="0" type="line" smooth="no"/>
      <point x="839" y="0" type="line" smooth="no"/>
      <point x="839" y="617" type="line" smooth="yes"/>
      <point x="839" y="865"/>
      <point x="806" y="980"/>
      <point x="619" y="980" type="curve" smooth="yes"/>
      <point x="448" y="980"/>
      <point x="309" y="852"/>
    </contour>
  </outline>
</glyph>
<glyph name="ij" format="1">
  <advance width="976"/>
  <unicode hex="0133"/>
  <outline>
    <contour>
      <point x="817" y="1098" type="line" smooth="no"/>
      <point x="817" y="180" type="line" smooth="yes"/>
      <point x="817" y="-146"/>
      <point x="793" y="-264"/>
      <point x="445" y="-308" type="curve" smooth="no"/>
      <point x="437" y="-310" type="line" smooth="no"/>
      <point x="437" y="-141" type="line" smooth="no"/>
      <point x="445" y="-141" type="line" smooth="no"/>
      <point x="644" y="-117"/>
      <point x="647" y="-30"/>
      <point x="647" y="126" type="curve" smooth="yes"/>
      <point x="647" y="1098" type="line" smooth="no"/>
    </contour>
    <contour>
      <point x="325" y="1098" type="line" smooth="no"/>
      <point x="325" y="0" type="line" smooth="no"/>
      <point x="155" y="0" type="line" smooth="no"/>
      <point x="155" y="1098" type="line" smooth="no"/>
    </contour>
    <contour>
      <point x="325" y="1557" type="line" smooth="no"/>
      <point x="325" y="1359" type="line" smooth="no"/>
      <point x="155" y="1359" type="line" smooth="no"/>
      <point x="155" y="1557" type="line" smooth="no"/>
    </contour>
    <contour>
      <point x="817" y="1557" type="line" smooth="no"/>
      <point x="817" y="1359" type="line" smooth="no"/>
      <point x="647" y="1359" type="line" smooth="no"/>
      <point x="647" y="1557" type="line" smooth="no"/>
    </contour>
  </outline>
</glyph>
<glyph name="pi" format="1">
  <advance width="1456"/>
  <unicode hex="03c0"/>
  <outline>
    <contour>
      <point x="570" y="954" type="line" smooth="no"/>
      <point x="557" y="653"/>
      <point x="537" y="172"/>
      <point x="446" y="0" type="curve" smooth="no"/>
      <point x="298" y="0" type="line" smooth="no"/>
      <point x="386" y="185"/>
      <point x="412" y="648"/>
      <point x="420" y="954" type="curve" smooth="no"/>
      <point x="313" y="951"/>
      <point x="241" y="932"/>
      <point x="176" y="889" type="curve" smooth="no"/>
      <point x="160" y="1031" type="line" smooth="no"/>
      <point x="219" y="1087"/>
      <point x="313" y="1098"/>
      <point x="470" y="1098" type="curve" smooth="yes"/>
      <point x="1296" y="1098" type="line" smooth="no"/>
      <point x="1296" y="954" type="line" smooth="no"/>
      <point x="1114" y="954" type="line" smooth="no"/>
      <point x="1114" y="268" type="line" smooth="yes"/>
      <point x="1114" y="204"/>
      <point x="1116" y="114"/>
      <point x="1202" y="114" type="curve" smooth="yes"/>
      <point x="1223" y="114"/>
      <point x="1250" y="120"/>
      <point x="1282" y="128" type="curve" smooth="no"/>
      <point x="1282" y="-8" type="line" smooth="no"/>
      <point x="1237" y="-16"/>
      <point x="1195" y="-22"/>
      <point x="1160" y="-22" type="curve" smooth="yes"/>
      <point x="1020" y="-22"/>
      <point x="976" y="65"/>
      <point x="976" y="287" type="curve" smooth="yes"/>
      <point x="976" y="954" type="line" smooth="no"/>
    </contour>
  </outline>
</glyph>
<glyph name="quoteright" format="1">
  <advance width="504"/>
  <unicode hex="2019"/>
  <outline>
    <contour>
      <point x="249" y="1102" type="line" smooth="no"/>
      <point x="133" y="1102" type="line" smooth="no"/>
      <point x="226" y="1574" type="line" smooth="no"/>
      <point x="383" y="1574" type="line" smooth="no"/>
    </contour>
  </outline>
</glyph>
<glyph name="quotesinglbase" format="1">
  <advance width="504"/>
  <unicode hex="201a"/>
  <outline>
    <contour>
      <point x="126" y="-256" type="line" smooth="no"/>
      <point x="218" y="216" type="line" smooth="no"/>
      <point x="379" y="216" type="line" smooth="no"/>
      <point x="245" y="-256" type="line" smooth="no"/>
    </contour>
  </outline>
</glyph>
<glyph name="summation" format="1">
  <advance width="1064"/>
  <unicode hex="2211"/>
  <outline>
    <contour>
      <point x="1013" y="161" type="line" smooth="no"/>
      <point x="1000" y="0" type="line" smooth="no"/>
      <point x="82" y="0" type="line" smooth="no"/>
      <point x="82" y="139" type="line" smooth="no"/>
      <point x="524" y="833" type="line" smooth="no"/>
      <point x="104" y="1354" type="line" smooth="no"/>
      <point x="104" y="1496" type="line" smooth="no"/>
      <point x="960" y="1496" type="line" smooth="no"/>
      <point x="960" y="1343" type="line" smooth="no"/>
      <point x="304" y="1343" type="line" smooth="no"/>
      <point x="721" y="832" type="line" smooth="no"/>
      <point x="287" y="161" type="line" smooth="no"/>
    </contour>
  </outline>
</glyph>
